<svg width="64" height="64" viewBox="0 0 64 64" fill="none" xmlns="http://www.w3.org/2000/svg">
<path d="M12.9753 12.9753L11.5555 14.3383V49.6617L12.9753 51.0247L14.3383 52.4444H49.6617L51.0247 51.0247L52.4444 49.6617V14.3383L51.0247 12.9753L49.6617 11.5555H14.3383L12.9753 12.9753ZM25.8667 18.995C36.9407 21.3802 45.6296 32 45.6296 43.1876V45.6296H41.2568L40.9728 41.995C40.121 31.4889 31.0913 22.9136 20.8123 22.9136H18.3704V20.642C18.3704 18.3704 18.3704 18.3704 20.642 18.3704C21.8346 18.3704 24.2197 18.6543 25.8667 18.995ZM25.7531 28.3654C31.6592 30.1259 36.5432 36.9407 36.5432 43.4148C36.5432 45.6296 36.5432 45.6296 34.3284 45.6296H32.1704L31.8296 42.5062C31.2049 36.6 27.4 32.795 21.5506 32.1704L18.3704 31.8296V29.6716C18.3704 27.5136 18.4271 27.4568 20.5284 27.4568C21.721 27.4568 24.0494 27.8543 25.7531 28.3654ZM24.0494 39.9506C24.6741 40.5753 25.1852 41.5975 25.1852 42.2222C25.1852 43.6988 23.2543 45.6296 21.7778 45.6296C20.3012 45.6296 18.3704 43.6988 18.3704 42.2222C18.3704 41.5975 18.8815 40.5753 19.5062 39.9506C20.1309 39.3259 21.1531 38.8148 21.7778 38.8148C22.4025 38.8148 23.4247 39.3259 24.0494 39.9506Z" fill="black"/>
</svg>

