<svg width="35" height="36" viewBox="0 0 35 36" fill="none" xmlns="http://www.w3.org/2000/svg">
<path d="M31 21.0354C31 23.781 28.712 26 25.891 26H10.109C7.288 26 5 23.781 5 21.0354C5 18.5656 6.859 16.5221 9.303 16.146C9.264 15.9705 9.251 15.795 9.251 15.6069C9.251 13.8768 10.694 12.4602 12.488 12.4602C13.281 12.4602 14.022 12.7485 14.581 13.2124C15.582 11.0184 16.869 9 20.483 9C24.864 9 26.931 12.2847 26.931 15.7574C26.931 15.8953 26.931 16.0457 26.918 16.1836C29.245 16.6475 31 18.6409 31 21.0354Z" fill="#262626"/>
</svg>
