<svg width="36" height="36" viewBox="0 0 36 36" fill="none" xmlns="http://www.w3.org/2000/svg">
<path d="M12.33 4.5H23.67C27.99 4.5 31.5 8.01 31.5 12.33V23.67C31.5 25.7466 30.6751 27.7382 29.2066 29.2066C27.7382 30.6751 25.7466 31.5 23.67 31.5H12.33C8.01 31.5 4.5 27.99 4.5 23.67V12.33C4.5 10.2534 5.32494 8.26176 6.79335 6.79335C8.26176 5.32494 10.2534 4.5 12.33 4.5V4.5ZM12.06 7.2C10.771 7.2 9.53489 7.71203 8.62346 8.62346C7.71203 9.53489 7.2 10.771 7.2 12.06V23.94C7.2 26.6265 9.3735 28.8 12.06 28.8H23.94C25.229 28.8 26.4651 28.288 27.3765 27.3765C28.288 26.4651 28.8 25.229 28.8 23.94V12.06C28.8 9.3735 26.6265 7.2 23.94 7.2H12.06ZM25.0875 9.225C25.5351 9.225 25.9643 9.40279 26.2807 9.71926C26.5972 10.0357 26.775 10.4649 26.775 10.9125C26.775 11.3601 26.5972 11.7893 26.2807 12.1057C25.9643 12.4222 25.5351 12.6 25.0875 12.6C24.6399 12.6 24.2107 12.4222 23.8943 12.1057C23.5778 11.7893 23.4 11.3601 23.4 10.9125C23.4 10.4649 23.5778 10.0357 23.8943 9.71926C24.2107 9.40279 24.6399 9.225 25.0875 9.225ZM18 11.25C19.7902 11.25 21.5071 11.9612 22.773 13.227C24.0388 14.4929 24.75 16.2098 24.75 18C24.75 19.7902 24.0388 21.5071 22.773 22.773C21.5071 24.0388 19.7902 24.75 18 24.75C16.2098 24.75 14.4929 24.0388 13.227 22.773C11.9612 21.5071 11.25 19.7902 11.25 18C11.25 16.2098 11.9612 14.4929 13.227 13.227C14.4929 11.9612 16.2098 11.25 18 11.25V11.25ZM18 13.95C16.9259 13.95 15.8957 14.3767 15.1362 15.1362C14.3767 15.8957 13.95 16.9259 13.95 18C13.95 19.0741 14.3767 20.1043 15.1362 20.8638C15.8957 21.6233 16.9259 22.05 18 22.05C19.0741 22.05 20.1043 21.6233 20.8638 20.8638C21.6233 20.1043 22.05 19.0741 22.05 18C22.05 16.9259 21.6233 15.8957 20.8638 15.1362C20.1043 14.3767 19.0741 13.95 18 13.95Z" fill="#262626"/>
</svg>
