<svg width="35" height="36" viewBox="0 0 35 36" fill="none" xmlns="http://www.w3.org/2000/svg">
<path d="M18.44 11.7481V24H29.5891C31.9436 23.8041 33 22.0861 33 19.9763C33 17.746 31.5745 15.9526 29.6655 15.9526C29.1818 15.9526 28.7745 16.0732 28.3545 16.2842C28.0491 12.7578 25.5164 10 22.3982 10C20.9091 10 19.4964 10.6631 18.44 11.7481ZM17.32 13.2853C16.9382 13.014 16.5309 12.803 16.0855 12.6975V24H17.8545V12.4564C17.6636 12.6975 17.4855 12.9989 17.32 13.2853ZM14.3291 12.4715V24H15.5V12.5167C15.2582 12.4715 15.0164 12.4564 14.7618 12.4564C14.6091 12.4564 14.4691 12.4564 14.3291 12.4715ZM12 13.451V24H13.1582V12.7578C12.7382 12.9236 12.3436 13.1647 12 13.451ZM9.87455 17.2185C9.79818 17.2185 9.72182 17.1281 9.63273 17.0829V24H10.8036V14.747C10.3327 15.4704 10.0145 16.3294 9.87455 17.2185ZM7.27818 16.7966V23.8644C7.54545 23.9548 7.85091 24 8.18182 24H8.46182V16.676C8.36 16.6609 8.25818 16.6459 8.18182 16.6459C7.85091 16.6459 7.54545 16.7061 7.27818 16.7966ZM5 20.3229C5 21.4532 5.43273 22.4478 6.10727 23.1259V17.535C5.43273 18.1981 5 19.2078 5 20.3229Z" fill="#262626"/>
</svg>
