<svg width="36" height="36" viewBox="0 0 36 36" fill="none" xmlns="http://www.w3.org/2000/svg">
<path d="M17.9999 6.1875C11.4762 6.1875 6.1875 11.4761 6.1875 17.9998C6.1875 24.5238 11.4762 29.8119 17.9999 29.8119C24.5243 29.8119 29.8125 24.5238 29.8125 17.9998C29.8125 11.4765 24.5243 6.18806 17.9998 6.18806L17.9999 6.1875V6.1875ZM23.417 23.2242C23.2054 23.5712 22.7513 23.6812 22.4043 23.4682C19.6308 21.7742 16.1394 21.3905 12.0276 22.3299C11.6314 22.4202 11.2364 22.1719 11.1462 21.7756C11.0555 21.3792 11.3027 20.9842 11.7 20.894C16.1996 19.8655 20.0593 20.3086 23.173 22.2114C23.52 22.4244 23.63 22.8772 23.417 23.2242V23.2242ZM24.8629 20.0074C24.5963 20.4412 24.0292 20.578 23.5962 20.3114C20.421 18.3593 15.581 17.7941 11.8254 18.9341C11.3383 19.0813 10.8239 18.8068 10.676 18.3206C10.5293 17.8335 10.804 17.32 11.2902 17.1719C15.5801 15.8703 20.9133 16.5008 24.5596 18.7415C24.9926 19.0081 25.1294 19.5751 24.8629 20.0076V20.0074ZM24.987 16.6582C21.1799 14.3969 14.8987 14.189 11.2638 15.2922C10.6801 15.4692 10.0629 15.1397 9.88598 14.5561C9.7091 13.9721 10.0383 13.3552 10.6224 13.1778C14.795 11.9111 21.7314 12.1559 26.1146 14.7579C26.6407 15.0695 26.8128 15.7476 26.5011 16.2719C26.1908 16.7969 25.5109 16.9699 24.9875 16.6582H24.987Z" fill="#262626"/>
</svg>
