<svg width="64" height="64" viewBox="0 0 64 64" fill="none" xmlns="http://www.w3.org/2000/svg">
<path d="M42.9099 30.3201C42.7118 30.2251 42.5105 30.1337 42.3066 30.0462C41.9516 23.5039 38.3768 19.7585 32.3742 19.7202C32.347 19.72 32.32 19.72 32.2928 19.72C28.7025 19.72 25.7165 21.2525 23.8786 24.0412L27.1798 26.3058C28.5528 24.2227 30.7075 23.7786 32.2944 23.7786C32.3127 23.7786 32.3311 23.7786 32.3492 23.7788C34.3256 23.7914 35.8171 24.3661 36.7823 25.4867C37.4848 26.3025 37.9546 27.4299 38.1873 28.8528C36.4349 28.555 34.5398 28.4634 32.5139 28.5795C26.807 28.9083 23.1381 32.2367 23.3845 36.8616C23.5095 39.2076 24.6783 41.2259 26.6753 42.5443C28.3637 43.6588 30.5383 44.2039 32.7984 44.0805C35.783 43.9169 38.1245 42.7781 39.758 40.6959C40.9985 39.1147 41.7832 37.0655 42.1296 34.4835C43.552 35.3419 44.6062 36.4716 45.1884 37.8295C46.1783 40.1379 46.2361 43.9312 43.1409 47.0238C40.429 49.733 37.1693 50.905 32.2428 50.9412C26.7781 50.9007 22.6452 49.1482 19.9581 45.7322C17.4418 42.5335 16.1414 37.9134 16.0929 32C16.1414 26.0866 17.4418 21.4664 19.9581 18.2677C22.6452 14.8518 26.778 13.0993 32.2428 13.0587C37.7471 13.0996 41.9521 14.8605 44.742 18.293C46.11 19.9762 47.1414 22.0929 47.8214 24.561L51.6899 23.5289C50.8658 20.4909 49.5689 17.8731 47.8041 15.7021C44.2274 11.3016 38.9963 9.04675 32.2562 9H32.2293C25.5029 9.04659 20.3304 11.31 16.8555 15.7273C13.7634 19.6582 12.1684 25.1277 12.1148 31.9838L12.1146 32L12.1148 32.0162C12.1684 38.8722 13.7634 44.3419 16.8555 48.2727C20.3304 52.6899 25.5029 54.9535 32.2293 55H32.2562C38.2364 54.9586 42.4516 53.3929 45.9241 49.9235C50.4673 45.3846 50.3305 39.6952 48.8331 36.2025C47.7588 33.6979 45.7106 31.6637 42.9099 30.3201ZM32.5847 40.0277C30.0835 40.1686 27.4849 39.0459 27.3568 36.6412C27.2618 34.8582 28.6257 32.8687 32.7382 32.6317C33.2092 32.6046 33.6713 32.5913 34.1254 32.5913C35.6192 32.5913 37.0166 32.7364 38.2872 33.0142C37.8133 38.9323 35.0336 39.8933 32.5847 40.0277Z" fill="#262626"/>
</svg>
