<svg width="36" height="36" viewBox="0 0 36 36" fill="none" xmlns="http://www.w3.org/2000/svg">
<path d="M29.8125 10.6961C28.943 11.0914 28.0056 11.3511 27.0344 11.4753C28.0282 10.8768 28.7961 9.92818 29.1575 8.78758C28.2202 9.35223 27.1812 9.74749 26.0858 9.97335C25.1937 9.00215 23.9401 8.4375 22.5172 8.4375C19.8634 8.4375 17.6951 10.6058 17.6951 13.2822C17.6951 13.6662 17.7403 14.0388 17.8193 14.3889C13.799 14.1856 10.2191 12.2545 7.8363 9.32965C7.41845 10.0411 7.1813 10.8768 7.1813 11.7576C7.1813 13.4403 8.02828 14.931 9.33827 15.778C8.53646 15.778 7.79112 15.5521 7.13613 15.2133C7.13613 15.2133 7.13613 15.2133 7.13613 15.2472C7.13613 17.5961 8.8075 19.5611 11.0209 20.0016C10.6144 20.1145 10.1852 20.1709 9.74482 20.1709C9.43991 20.1709 9.13499 20.1371 8.84138 20.0806C9.4512 21.9891 11.2242 23.412 13.3586 23.4459C11.7098 24.7559 9.62059 25.5238 7.3394 25.5238C6.95544 25.5238 6.57148 25.5013 6.18752 25.4561C8.33319 26.8338 10.8854 27.6356 13.6183 27.6356C22.5172 27.6356 27.4071 20.25 27.4071 13.8469C27.4071 13.6323 27.4071 13.429 27.3958 13.2144C28.3444 12.5369 29.1575 11.6786 29.8125 10.6961Z" fill="#262626"/>
</svg>
