<svg width="36" height="36" viewBox="0 0 36 36" fill="none" xmlns="http://www.w3.org/2000/svg">
<path d="M11.1818 10H24.8182C26.9881 10 29.0692 10.8429 30.6036 12.3431C32.138 13.8434 33 15.8783 33 18C33 20.1217 32.138 22.1566 30.6036 23.6569C29.0692 25.1571 26.9881 26 24.8182 26C22.3909 26 20.2227 24.9733 18.7227 23.3333H17.2773C15.7773 24.9733 13.6091 26 11.1818 26C9.01186 26 6.93079 25.1571 5.3964 23.6569C3.86201 22.1566 3 20.1217 3 18C3 15.8783 3.86201 13.8434 5.3964 12.3431C6.93079 10.8429 9.01186 10 11.1818 10V10ZM9.81818 14V16.6667H7.09091V19.3333H9.81818V22H12.5455V19.3333H15.2727V16.6667H12.5455V14H9.81818ZM22.7727 18C22.2302 18 21.71 18.2107 21.3264 18.5858C20.9428 18.9609 20.7273 19.4696 20.7273 20C20.7273 20.5304 20.9428 21.0391 21.3264 21.4142C21.71 21.7893 22.2302 22 22.7727 22C23.3152 22 23.8355 21.7893 24.2191 21.4142C24.6027 21.0391 24.8182 20.5304 24.8182 20C24.8182 19.4696 24.6027 18.9609 24.2191 18.5858C23.8355 18.2107 23.3152 18 22.7727 18V18ZM26.8636 14C26.3211 14 25.8009 14.2107 25.4173 14.5858C25.0337 14.9609 24.8182 15.4696 24.8182 16C24.8182 16.5304 25.0337 17.0391 25.4173 17.4142C25.8009 17.7893 26.3211 18 26.8636 18C27.4061 18 27.9264 17.7893 28.31 17.4142C28.6936 17.0391 28.9091 16.5304 28.9091 16C28.9091 15.4696 28.6936 14.9609 28.31 14.5858C27.9264 14.2107 27.4061 14 26.8636 14Z" fill="#262626"/>
</svg>
